<svg xmlns="http://www.w3.org/2000/svg" viewBox="0 0 150 150">
  <path fill="#EF9E23" d="M128.804 59.18l-36.72 21.2-5.75-9.96 36.72-21.2z"/>
  <path fill="#9F2D22" d="M123.637 75.442l-36.718 21.2-5.75-9.96 36.717-21.2z"/>
  <path fill="#1D8A91" d="M118.382 91.76l-36.718 21.2-5.75-9.958 36.718-21.2z"/>
  <path fill="#0B1419" d="M69.3 120l38.1-21.9 5.8 10-44 25.9"/>
  <path fill="#DC4533" d="M125.608 74.326l-5-8.66 8.746-5.05 5 8.66z"/>
  <path fill="#21B4B4" d="M120.643 90.477l-5-8.66 8.747-5.05 5 8.66z"/>
  <path fill="#183B61" d="M115.684 106.63l-5-8.66 8.747-5.05 5 8.66z"/>
  <g>
    <path fill="#EF9E23" d="M25.61 32.897l36.718 21.2-5.75 9.96-36.718-21.2z"/>
    <path fill="#9F2D22" d="M42.3 29.28l36.72 21.2-5.75 9.958-36.72-21.2z"/>
    <path fill="#1D8A91" d="M58.995 25.66l36.72 21.2-5.75 9.958-36.72-21.2z"/>
    <path fill="#0B1419" d="M108 54L70 32l5.8-10 44.4 25.2"/>
    <path fill="#DC4533" d="M40.276 28.093l-5 8.66-8.746-5.05 5-8.66z"/>
    <path fill="#21B4B4" d="M56.814 24.36l-5 8.66-8.747-5.05 5-8.66z"/>
    <path fill="#183B61" d="M73.262 20.577l-5 8.66-8.746-5.05 5-8.66z"/>
  </g>
  <g>
    <path fill="#EF9E23" d="M54.8 93.1h11.5v42.4H54.8z"/>
    <path fill="#9F2D22" d="M43.3 80.4h11.5v42.4H43.3z"/>
    <path fill="#1D8A91" d="M31.8 67.7h11.5v42.4H31.8z"/>
    <path fill="#0B1419" d="M31.9 53.5l-.1 43.9H20.3l-.4-51"/>
    <path fill="#DC4533" d="M43.3 125.1h10v10.1h-10z"/>
    <path fill="#21B4B4" d="M31.8 112.7h10v10.1h-10z"/>
    <path fill="#183B61" d="M20.3 100.3h10v10.1h-10z"/>
  </g>
</svg>
